<svg width="12" height="14" viewBox="0 0 12 14" fill="none" xmlns="http://www.w3.org/2000/svg">
<path d="M10.2931 7.29303C10.6836 6.90251 11.3166 6.90251 11.7072 7.29303C12.0976 7.68356 12.0977 8.31659 11.7072 8.70709L6.70715 13.7071C6.31665 14.0976 5.68362 14.0975 5.29309 13.7071L0.293091 8.70709C-0.0974335 8.31657 -0.0974335 7.68355 0.293091 7.29303C0.683615 6.90251 1.31663 6.90251 1.70715 7.29303L6.00012 11.586L10.2931 7.29303ZM10.2931 0.29303C10.6836 -0.0974945 11.3166 -0.0974945 11.7072 0.29303C12.0976 0.68356 12.0977 1.31659 11.7072 1.70709L6.70715 6.70709C6.31665 7.09759 5.68362 7.09754 5.29309 6.70709L0.293091 1.70709C-0.0974335 1.31657 -0.0974335 0.683554 0.293091 0.29303C0.683615 -0.0974945 1.31663 -0.0974945 1.70715 0.29303L6.00012 4.586L10.2931 0.29303Z" fill="white"/>
</svg>
